<svg id="图层_1" data-name="图层 1" xmlns="http://www.w3.org/2000/svg" viewBox="0 0 859.72 595.28"><defs><style>.cls-1{fill:#8f93a1;opacity:0.1;}.cls-10,.cls-11,.cls-12,.cls-13,.cls-14,.cls-15,.cls-16,.cls-17,.cls-18,.cls-19,.cls-2,.cls-21,.cls-22,.cls-3,.cls-4,.cls-5,.cls-6,.cls-7{fill:none;}.cls-2{stroke:#f2cacc;}.cls-10,.cls-11,.cls-12,.cls-13,.cls-14,.cls-15,.cls-16,.cls-17,.cls-18,.cls-19,.cls-2,.cls-21,.cls-22,.cls-3,.cls-37,.cls-4,.cls-5,.cls-6,.cls-7{stroke-miterlimit:10;}.cls-3,.cls-4,.cls-5,.cls-7{stroke:#231815;}.cls-3,.cls-4,.cls-5{stroke-width:1.35px;}.cls-3{stroke-dasharray:3.66;}.cls-5{stroke-dasharray:3.9 3.9;}.cls-6{stroke:#f5d92b;}.cls-10,.cls-11,.cls-6{stroke-width:0.91px;}.cls-7{stroke-width:1.35px;}.cls-8{font-size:16.46px;font-family:CenturyGothic-Bold, Century Gothic;font-weight:700;}.cls-37,.cls-8{fill:#262f7e;}.cls-25,.cls-30,.cls-9{font-size:14.63px;}.cls-20,.cls-9{fill:#231815;}.cls-20,.cls-23,.cls-25,.cls-30,.cls-31,.cls-9{font-family:CenturyGothic, Century Gothic;}.cls-10,.cls-11,.cls-12,.cls-13,.cls-14,.cls-15,.cls-16,.cls-17,.cls-18,.cls-19{stroke:#faee00;}.cls-11,.cls-13,.cls-15,.cls-17,.cls-19{stroke-dasharray:3.11 3.11;}.cls-12,.cls-13{stroke-width:0.91px;}.cls-14,.cls-15{stroke-width:0.91px;}.cls-16,.cls-17{stroke-width:0.91px;}.cls-18,.cls-19{stroke-width:0.92px;}.cls-20,.cls-23{font-size:10.98px;}.cls-21,.cls-37{stroke:#262f7e;}.cls-22{stroke:#5f5f5f;}.cls-23,.cls-29,.cls-31{fill:#5f5f5f;}.cls-24{fill:#2f3450;}.cls-25,.cls-30{fill:#fff;}.cls-26,.cls-30{letter-spacing:0em;}.cls-27{letter-spacing:0em;}.cls-28{letter-spacing:-0.03em;}.cls-31{font-size:9px;}.cls-32{letter-spacing:0em;}.cls-33{fill:#1c2d75;}.cls-34{fill:#f2cacc;}.cls-35{fill:#f5d92b;}.cls-36{fill:#040000;}.cls-37{stroke-dasharray:3.66;}</style></defs><title>自我认知</title><rect class="cls-1" x="34.14" y="144.09" width="724.45" height="275.44"/><line class="cls-2" x1="214.38" y1="187.88" x2="394.89" y2="187.88"/><line class="cls-2" x1="214.38" y1="183.26" x2="394.89" y2="183.26"/><line class="cls-2" x1="214.38" y1="178.64" x2="394.89" y2="178.64"/><line class="cls-2" x1="214.38" y1="187.88" x2="394.89" y2="187.88"/><line class="cls-2" x1="214.38" y1="178.64" x2="394.89" y2="178.64"/><line class="cls-3" x1="700.5" y1="187.88" x2="715.86" y2="187.88"/><line class="cls-3" x1="700.5" y1="183.26" x2="715.86" y2="183.26"/><line class="cls-4" x1="700.5" y1="178.64" x2="702.33" y2="178.64"/><line class="cls-5" x1="706.23" y1="178.64" x2="712.08" y2="178.64"/><line class="cls-4" x1="714.03" y1="178.64" x2="715.86" y2="178.64"/><line class="cls-4" x1="700.5" y1="187.88" x2="702.33" y2="187.88"/><line class="cls-5" x1="706.23" y1="187.88" x2="712.08" y2="187.88"/><line class="cls-4" x1="714.03" y1="187.88" x2="715.86" y2="187.88"/><line class="cls-4" x1="700.5" y1="178.64" x2="702.33" y2="178.64"/><line class="cls-5" x1="706.23" y1="178.64" x2="712.08" y2="178.64"/><line class="cls-4" x1="714.03" y1="178.64" x2="715.86" y2="178.64"/><line class="cls-6" x1="214.38" y1="263.85" x2="448.66" y2="263.85"/><line class="cls-6" x1="214.38" y1="268.09" x2="448.66" y2="268.09"/><line class="cls-6" x1="214.38" y1="272.33" x2="448.66" y2="272.33"/><line class="cls-6" x1="214.38" y1="276.57" x2="448.66" y2="276.57"/><line class="cls-6" x1="214.38" y1="280.8" x2="448.66" y2="280.8"/><line class="cls-6" x1="214.38" y1="285.04" x2="448.66" y2="285.04"/><line class="cls-7" x1="696.66" y1="263.85" x2="715.86" y2="263.85"/><line class="cls-7" x1="696.66" y1="268.09" x2="715.86" y2="268.09"/><line class="cls-7" x1="696.66" y1="272.33" x2="715.86" y2="272.33"/><line class="cls-7" x1="696.66" y1="276.57" x2="715.86" y2="276.57"/><line class="cls-7" x1="696.66" y1="280.8" x2="715.86" y2="280.8"/><line class="cls-7" x1="696.66" y1="285.04" x2="715.86" y2="285.04"/><text class="cls-8" transform="translate(49.31 190.09)">Ethnic Chinese</text><text class="cls-8" transform="translate(49.31 280.31)">Ethnic Malaysian</text><text class="cls-8" transform="translate(49.31 366.92)">Ethnic Indian</text><text class="cls-9" transform="translate(214.38 209.07)">Chinese</text><text class="cls-9" transform="translate(424.01 209.07)">Malaysian</text><line class="cls-10" x1="633.24" y1="187.88" x2="635.06" y2="187.88"/><line class="cls-11" x1="638.17" y1="187.88" x2="649.05" y2="187.88"/><line class="cls-10" x1="650.61" y1="187.88" x2="652.44" y2="187.88"/><line class="cls-12" x1="633.24" y1="183.26" x2="635.06" y2="183.26"/><line class="cls-13" x1="638.17" y1="183.26" x2="649.05" y2="183.26"/><line class="cls-12" x1="650.61" y1="183.26" x2="652.44" y2="183.26"/><line class="cls-14" x1="633.24" y1="178.64" x2="635.06" y2="178.64"/><line class="cls-15" x1="638.17" y1="178.64" x2="649.05" y2="178.64"/><line class="cls-14" x1="650.61" y1="178.64" x2="652.44" y2="178.64"/><line class="cls-16" x1="633.24" y1="187.88" x2="635.06" y2="187.88"/><line class="cls-17" x1="638.17" y1="187.88" x2="649.05" y2="187.88"/><line class="cls-16" x1="650.61" y1="187.88" x2="652.44" y2="187.88"/><line class="cls-18" x1="633.24" y1="178.64" x2="635.06" y2="178.64"/><line class="cls-19" x1="638.17" y1="178.64" x2="649.05" y2="178.64"/><line class="cls-18" x1="650.61" y1="178.64" x2="652.44" y2="178.64"/><text class="cls-20" transform="translate(618.37 205.41)">Religious <tspan x="1.59" y="13.17">Believers</tspan></text><text class="cls-20" transform="translate(690.85 205.41)">Others</text><line class="cls-21" x1="485.46" y1="263.83" x2="593" y2="263.83"/><line class="cls-21" x1="485.46" y1="268.06" x2="593" y2="268.06"/><line class="cls-21" x1="485.46" y1="272.3" x2="593" y2="272.3"/><line class="cls-21" x1="485.46" y1="276.54" x2="593" y2="276.54"/><line class="cls-21" x1="485.46" y1="280.78" x2="593" y2="280.78"/><line class="cls-21" x1="485.46" y1="285.02" x2="593" y2="285.02"/><text class="cls-9" transform="translate(485.46 306.82)">Malaysian</text><text class="cls-9" transform="translate(212.89 306.82)">Religious Believers</text><line class="cls-2" x1="633.23" y1="263.43" x2="652.44" y2="263.43"/><line class="cls-2" x1="633.23" y1="267.67" x2="652.44" y2="267.67"/><line class="cls-2" x1="633.23" y1="271.91" x2="652.44" y2="271.91"/><line class="cls-2" x1="633.23" y1="276.15" x2="652.44" y2="276.15"/><line class="cls-2" x1="633.23" y1="280.39" x2="652.44" y2="280.39"/><line class="cls-2" x1="633.23" y1="284.62" x2="652.44" y2="284.62"/><text class="cls-20" transform="translate(624.12 306.82)">Malays</text><text class="cls-20" transform="translate(688.93 306.82)">Others</text><text class="cls-9" transform="translate(212.89 385.44)">Malaysian</text><text class="cls-9" transform="translate(539.23 385.44)">Indian</text><text class="cls-20" transform="translate(618.37 383.61)">Religious <tspan x="1.59" y="13.17">Believers</tspan></text><text class="cls-20" transform="translate(688.93 383.61)">Others</text><line class="cls-22" x1="212.89" y1="110.84" x2="394.89" y2="110.84"/><text class="cls-23" transform="translate(775.09 367.98)">7.1%</text><line class="cls-22" x1="445.19" y1="110.84" x2="552.72" y2="110.84"/><text class="cls-23" transform="translate(563.82 114.51)">30%</text><line class="cls-22" x1="613.03" y1="110.84" x2="632.23" y2="110.84"/><text class="cls-23" transform="translate(640.41 114.51)">5%</text><line class="cls-22" x1="769.43" y1="366.73" x2="769.43" y2="362.22"/><line class="cls-22" x1="769.43" y1="284.27" x2="769.43" y2="262.66"/><line class="cls-22" x1="769.43" y1="188.44" x2="769.43" y2="179.2"/><text class="cls-23" transform="translate(775.09 276.97)">54.5%</text><text class="cls-23" transform="translate(775.09 187.32)">23.4%</text><text class="cls-23" transform="translate(404.48 114.51)">50%</text><rect class="cls-24" x="612.4" y="484.14" width="146.19" height="21.07" rx="10.53" ry="10.53"/><text class="cls-25" transform="translate(641.8 499.35)"><tspan class="cls-26">V</tspan><tspan class="cls-27" x="10.35" y="0">iew By </tspan><tspan class="cls-28" x="59.3" y="0">T</tspan><tspan x="65.1" y="0">rait</tspan></text><rect class="cls-29" x="612.4" y="513.37" width="146.19" height="21.07" rx="10.53" ry="10.53"/><text class="cls-30" transform="translate(632.26 528.58)">V<tspan class="cls-27" x="10.35" y="0">iew By Range</tspan></text><text class="cls-31" transform="translate(766.39 403.35)">Population of<tspan x="0" y="10.8">Ethnic G</tspan><tspan class="cls-32" x="36.82" y="10.8">r</tspan><tspan x="39.49" y="10.8">oups(%)</tspan></text><text class="cls-31" transform="translate(673.45 110.84)">Population of<tspan x="0" y="10.8">Self-cognition(%)</tspan></text><rect class="cls-33" x="214.38" y="361.06" width="288.05" height="4.12"/><rect class="cls-34" x="539.23" y="361.06" width="53.77" height="4.05"/><rect class="cls-35" x="633.24" y="361.06" width="19.2" height="4.05"/><rect class="cls-36" x="700.5" y="361.06" width="15.36" height="4.05"/><line class="cls-37" x1="423.81" y1="187.5" x2="604.32" y2="187.5"/><line class="cls-37" x1="423.81" y1="182.88" x2="604.32" y2="182.88"/><line class="cls-37" x1="423.81" y1="178.26" x2="604.32" y2="178.26"/><line class="cls-37" x1="423.81" y1="187.5" x2="604.32" y2="187.5"/><line class="cls-37" x1="423.81" y1="178.26" x2="604.32" y2="178.26"/><text class="cls-23" transform="translate(230.53 448.65)">Malaysian cognition</text><rect class="cls-33" x="214.7" y="439.74" width="10.8" height="10.8"/><rect class="cls-34" x="374.29" y="439.79" width="10.71" height="10.71"/><text class="cls-23" transform="translate(390.12 448.65)">Origianl cognition</text><rect class="cls-35" x="523.04" y="439.79" width="10.71" height="10.71"/><text class="cls-23" transform="translate(538.87 448.65)">Religious cognition</text><rect class="cls-36" x="686.55" y="439.79" width="10.71" height="10.71"/><text class="cls-23" transform="translate(702.38 448.65)">Others</text></svg>